<svg width="600" height="450" viewBox="0 0 600 450" fill="none" xmlns="http://www.w3.org/2000/svg">
  <!-- Background shapes -->
  <circle cx="300" cy="220" r="180" fill="#F3F4FE" />
  <path d="M400 100C450 120 480 200 460 260C440 320 380 360 320 350C260 340 220 300 200 250C180 200 200 150 230 120C260 90 350 80 400 100Z" fill="#E2E8FF" />
  
  <!-- Person -->
  <path d="M250 180C250 160 270 150 290 150C310 150 330 160 330 180C330 200 310 240 290 240C270 240 250 200 250 180Z" fill="#FBD1B9" /> <!-- Head -->
  <path d="M290 240L290 320" stroke="#1A2E3B" stroke-width="8" /> <!-- Neck -->
  <path d="M240 300C240 280 270 270 290 270C310 270 340 280 340 300L340 400L240 400L240 300Z" fill="#48BB78" /> <!-- Torso -->
  <path d="M240 320L200 380" stroke="#1A2E3B" stroke-width="8" /> <!-- Left arm -->
  <path d="M340 320L390 340" stroke="#1A2E3B" stroke-width="8" /> <!-- Right arm upper -->
  <path d="M390 340L420 300" stroke="#1A2E3B" stroke-width="8" /> <!-- Right arm lower -->
  
  <!-- Face -->
  <circle cx="275" cy="180" r="5" fill="#1A2E3B" /> <!-- Left eye -->
  <circle cx="305" cy="180" r="5" fill="#1A2E3B" /> <!-- Right eye -->
  <path d="M280 200C285 205 295 205 300 200" stroke="#1A2E3B" stroke-width="3" fill="none" /> <!-- Smile -->
  
  <!-- Device/Screen -->
  <rect x="160" y="330" width="80" height="60" rx="5" fill="#FFF" stroke="#1A2E3B" stroke-width="3" /> <!-- Tablet/device -->
  <rect x="170" y="340" width="60" height="40" rx="2" fill="#E2E8FF" /> <!-- Screen -->
  <path d="M180 350L220 350" stroke="#1A2E3B" stroke-width="2" /> <!-- UI element 1 -->
  <path d="M180 360L210 360" stroke="#1A2E3B" stroke-width="2" /> <!-- UI element 2 -->
  <path d="M180 370L200 370" stroke="#1A2E3B" stroke-width="2" /> <!-- UI element 3 -->
  
  <!-- AI Element -->
  <circle cx="420" cy="300" r="30" fill="#48BB78" /> <!-- AI circle -->
  <path d="M405 290L420 305L435 290" stroke="white" stroke-width="3" /> <!-- AI icon part 1 -->
  <path d="M420 305L420 320" stroke="white" stroke-width="3" /> <!-- AI icon part 2 -->
  <path d="M405 310L435 310" stroke="white" stroke-width="3" /> <!-- AI icon part 3 -->
  
  <!-- Connection lines -->
  <path d="M240 360C260 340 380 310 400 310" stroke="#48BB78" stroke-width="2" stroke-dasharray="5 5" /> <!-- Connection line -->
  
  <!-- Digital elements floating -->
  <rect x="340" y="240" width="30" height="20" rx="4" fill="#48BB78" opacity="0.8" />
  <rect x="380" y="200" width="20" height="20" rx="4" fill="#48BB78" opacity="0.8" />
  <rect x="420" y="240" width="25" height="15" rx="4" fill="#48BB78" opacity="0.8" />
  <rect x="360" y="180" width="15" height="15" rx="4" fill="#48BB78" opacity="0.8" />
  
  <!-- Glasses -->
  <path d="M265 175C265 170 270 167 275 167C280 167 285 170 285 175C285 180 280 183 275 183C270 183 265 180 265 175Z" stroke="#1A2E3B" stroke-width="2" fill="none" />
  <path d="M295 175C295 170 300 167 305 167C310 167 315 170 315 175C315 180 310 183 305 183C300 183 295 180 295 175Z" stroke="#1A2E3B" stroke-width="2" fill="none" />
  <path d="M285 175L295 175" stroke="#1A2E3B" stroke-width="2" />
</svg> 